<svg height="883" viewBox="0 0 1265.677 883" width="1265.677" xmlns="http://www.w3.org/2000/svg"><g fill="none" opacity=".239"><g transform="matrix(-.70710678 .70710678 -.70710678 -.70710678 1006.123863 520.688491)"><path d="m0 0h145.319v226.322h-145.319z"/><path d="m144.32 1h-143.32v224.322h143.32zm1-1v226.322h-145.32v-226.322z" fill="#707070"/></g><g stroke="#707070"><g transform="matrix(.70710678 .70710678 -.70710678 .70710678 1162.920117 360.655123)"><path d="m0 0a145.319 145.319 0 0 1 145.319 145.319v448.068h-145.319z" stroke="none"/><path d="m.951.5a143.868 143.868 0 0 1 143.868 143.868v448.068a.451.451 0 0 1 -.451.451h-143.417a.451.451 0 0 1 -.451-.451v-591.485a.451.451 0 0 1 .451-.451z" fill="none"/></g><g transform="matrix(-.70710678 .70710678 -.70710678 -.70710678 1265.67555 780.244663)"><path d="m0 0h145.319v205.869h-145.319z" stroke="none"/><path d="m.5.5h144.319v204.869h-144.319z" fill="none"/></g></g></g><g fill="#fafafa" opacity=".4" transform="translate(-2949.166 430.334)"><path d="m0 0h79.289v145.924h-79.289z" transform="matrix(-.70710678 .70710678 -.70710678 -.70710678 3108.416005 -327.150067)"/><path d="m0 0a79.289 79.289 0 0 1 79.289 79.289v244.473h-79.289z" transform="matrix(.70710678 .70710678 -.70710678 .70710678 3178.10093 -430.334369)"/><path d="m0 0h79.289v112.326h-79.289z" transform="matrix(-.70710678 .70710678 -.70710678 -.70710678 3234.165683 -201.399289)"/></g></svg>